# This file uses centimeters as units for non-parametric coordinates.

mtllib Hill green.mtl
g default
v 2.812664 -0.083702 -2.043520
v 1.074342 -0.083702 -3.306485
v -1.074342 -0.083702 -3.306484
v -2.812664 -0.083702 -2.043520
v -3.476644 -0.083702 0.000000
v -2.812664 -0.083702 2.043520
v -1.074342 -0.083702 3.306484
v 1.074342 -0.083702 3.306484
v 2.812663 -0.083702 2.043520
v 3.476643 -0.083702 0.000000
v 3.049174 15.121415 -2.215355
v 1.164681 15.121415 -3.584519
v -1.164681 15.121415 -3.584519
v -3.049175 15.121415 -2.215354
v -3.768987 15.121415 0.000000
v -3.049174 15.121415 2.215355
v -1.164681 15.121415 3.584519
v 1.164681 15.121415 3.584519
v 3.049174 15.121415 2.215354
v 3.768986 15.121415 0.000000
v 2.812742 16.532679 -2.043577
v 1.074372 16.532679 -3.306577
v -1.074372 16.532679 -3.306577
v -2.812742 16.532679 -2.043577
v -3.476741 16.532679 0.000000
v -2.812742 16.532679 2.043577
v -1.074372 16.532679 3.306577
v 1.074372 16.532679 3.306576
v 2.812742 16.532679 2.043577
v 3.476740 16.532679 0.000000
v 2.109557 17.599368 -1.532683
v 0.805779 17.599368 -2.479933
v -0.805779 17.599368 -2.479933
v -2.109557 17.599368 -1.532682
v -2.607556 17.599368 0.000000
v -2.109557 17.599368 1.532683
v -0.805779 17.599368 2.479933
v 0.805779 17.599368 2.479933
v 2.109556 17.599368 1.532682
v 2.607555 17.599368 0.000000
v 1.406371 18.260197 -1.021789
v 0.537186 18.260197 -1.653289
v -0.537186 18.260197 -1.653289
v -1.406371 18.260197 -1.021788
v -1.738370 18.260197 0.000000
v -1.406371 18.260197 1.021789
v -0.537186 18.260197 1.653288
v 0.537186 18.260197 1.653288
v 1.406371 18.260197 1.021788
v 1.738370 18.260197 0.000000
v 0.703186 18.483990 -0.510894
v 0.268593 18.483990 -0.826644
v -0.268593 18.483990 -0.826644
v -0.703186 18.483990 -0.510894
v -0.869185 18.483990 0.000000
v -0.703185 18.483990 0.510894
v -0.268593 18.483990 0.826644
v 0.268593 18.483990 0.826644
v 0.703186 18.483990 0.510894
v 0.869185 18.483990 0.000000
v 0.000000 18.483990 0.000000
vt 0.375000 0.312500
vt 0.400000 0.312500
vt 0.425000 0.312500
vt 0.450000 0.312500
vt 0.475000 0.312500
vt 0.500000 0.312500
vt 0.525000 0.312500
vt 0.550000 0.312500
vt 0.575000 0.312500
vt 0.600000 0.312500
vt 0.625000 0.312500
vt 0.375000 0.688440
vt 0.400000 0.688440
vt 0.425000 0.688440
vt 0.450000 0.688440
vt 0.475000 0.688440
vt 0.500000 0.688440
vt 0.525000 0.688440
vt 0.550000 0.688440
vt 0.575000 0.688440
vt 0.600000 0.688440
vt 0.625000 0.688440
vt 0.626409 0.751909
vt 0.548284 0.695147
vt 0.451716 0.695147
vt 0.373591 0.751909
vt 0.343750 0.843750
vt 0.373591 0.935591
vt 0.451716 0.992353
vt 0.548284 0.992353
vt 0.626409 0.935591
vt 0.656250 0.843750
vt 0.601127 0.770277
vt 0.538627 0.724868
vt 0.461373 0.724868
vt 0.398873 0.770277
vt 0.375000 0.843750
vt 0.398873 0.917223
vt 0.461373 0.962632
vt 0.538627 0.962632
vt 0.601127 0.917223
vt 0.625000 0.843750
vt 0.575845 0.788645
vt 0.528970 0.754588
vt 0.471030 0.754588
vt 0.424155 0.788645
vt 0.406250 0.843750
vt 0.424155 0.898855
vt 0.471030 0.932912
vt 0.528970 0.932912
vt 0.575845 0.898855
vt 0.593750 0.843750
vt 0.550564 0.807013
vt 0.519314 0.784309
vt 0.480686 0.784309
vt 0.449436 0.807013
vt 0.437500 0.843750
vt 0.449436 0.880487
vt 0.480686 0.903191
vt 0.519314 0.903191
vt 0.550564 0.880487
vt 0.562500 0.843750
vt 0.525282 0.825382
vt 0.509657 0.814029
vt 0.490343 0.814029
vt 0.474718 0.825382
vt 0.468750 0.843750
vt 0.474718 0.862118
vt 0.490343 0.873471
vt 0.509657 0.873471
vt 0.525282 0.862118
vt 0.531250 0.843750
vt 0.500000 0.837500
vn 0.808868 -0.019223 -0.587677
vn 0.308960 -0.019223 -0.950881
vn 0.309017 -0.000984 -0.951056
vn 0.809017 -0.000984 -0.587785
vn -0.308960 -0.019223 -0.950881
vn -0.309017 -0.000984 -0.951056
vn -0.808868 -0.019223 -0.587677
vn -0.809017 -0.000984 -0.587785
vn -0.999815 -0.019223 0.000000
vn -0.999999 -0.000984 0.000000
vn -0.808868 -0.019223 0.587677
vn -0.809017 -0.000984 0.587785
vn -0.308960 -0.019223 0.950881
vn -0.309017 -0.000984 0.951056
vn 0.308960 -0.019223 0.950881
vn 0.309017 -0.000984 0.951056
vn 0.808868 -0.019223 0.587677
vn 0.809017 -0.000984 0.587785
vn 0.999815 -0.019223 0.000000
vn 0.999999 -0.000984 0.000000
vn 0.285831 0.380046 -0.879696
vn 0.748314 0.380046 -0.543682
vn -0.285831 0.380046 -0.879696
vn -0.748314 0.380046 -0.543682
vn -0.924967 0.380046 0.000000
vn -0.748314 0.380046 0.543682
vn -0.285831 0.380046 0.879696
vn 0.285831 0.380046 0.879696
vn 0.748314 0.380046 0.543682
vn 0.924967 0.380046 0.000000
vn 0.225787 0.682738 -0.694902
vn 0.591119 0.682738 -0.429473
vn -0.225788 0.682738 -0.694902
vn -0.591119 0.682738 -0.429473
vn -0.730663 0.682738 0.000000
vn -0.591119 0.682738 0.429473
vn -0.225787 0.682738 0.694902
vn 0.225787 0.682738 0.694902
vn 0.591119 0.682738 0.429473
vn 0.730663 0.682738 -0.000000
vn 0.161786 0.851995 -0.497925
vn 0.423560 0.851995 -0.307735
vn -0.161786 0.851995 -0.497925
vn -0.423560 0.851996 -0.307734
vn -0.523549 0.851996 0.000001
vn -0.423560 0.851995 0.307735
vn -0.161785 0.851995 0.497925
vn 0.161786 0.851995 0.497925
vn 0.423560 0.851995 0.307735
vn 0.523549 0.851995 -0.000000
vn 0.063674 0.978541 -0.195969
vn 0.166702 0.978540 -0.121117
vn -0.063674 0.978541 -0.195969
vn -0.166702 0.978540 -0.121116
vn -0.206055 0.978541 0.000001
vn -0.166702 0.978541 0.121116
vn -0.063674 0.978541 0.195969
vn 0.063674 0.978540 0.195970
vn 0.166702 0.978540 0.121117
vn 0.206055 0.978541 0.000001
vn 0.000000 1.000000 -0.000001
s 1
g Hill_origin
usemtl initialShadingGroup
f 1/1/1 2/2/2 12/13/3 11/12/4
f 2/2/2 3/3/5 13/14/6 12/13/3
f 3/3/5 4/4/7 14/15/8 13/14/6
f 4/4/7 5/5/9 15/16/10 14/15/8
f 5/5/9 6/6/11 16/17/12 15/16/10
f 6/6/11 7/7/13 17/18/14 16/17/12
f 7/7/13 8/8/15 18/19/16 17/18/14
f 8/8/15 9/9/17 19/20/18 18/19/16
f 9/9/17 10/10/19 20/21/20 19/20/18
f 10/10/19 1/11/1 11/22/4 20/21/20
f 11/31/4 12/30/3 22/40/21 21/41/22
f 12/30/3 13/29/6 23/39/23 22/40/21
f 13/29/6 14/28/8 24/38/24 23/39/23
f 14/28/8 15/27/10 25/37/25 24/38/24
f 15/27/10 16/26/12 26/36/26 25/37/25
f 16/26/12 17/25/14 27/35/27 26/36/26
f 17/25/14 18/24/16 28/34/28 27/35/27
f 18/24/16 19/23/18 29/33/29 28/34/28
f 19/23/18 20/32/20 30/42/30 29/33/29
f 20/32/20 11/31/4 21/41/22 30/42/30
f 21/41/22 22/40/21 32/50/31 31/51/32
f 22/40/21 23/39/23 33/49/33 32/50/31
f 23/39/23 24/38/24 34/48/34 33/49/33
f 24/38/24 25/37/25 35/47/35 34/48/34
f 25/37/25 26/36/26 36/46/36 35/47/35
f 26/36/26 27/35/27 37/45/37 36/46/36
f 27/35/27 28/34/28 38/44/38 37/45/37
f 28/34/28 29/33/29 39/43/39 38/44/38
f 29/33/29 30/42/30 40/52/40 39/43/39
f 30/42/30 21/41/22 31/51/32 40/52/40
f 31/51/32 32/50/31 42/60/41 41/61/42
f 32/50/31 33/49/33 43/59/43 42/60/41
f 33/49/33 34/48/34 44/58/44 43/59/43
f 34/48/34 35/47/35 45/57/45 44/58/44
f 35/47/35 36/46/36 46/56/46 45/57/45
f 36/46/36 37/45/37 47/55/47 46/56/46
f 37/45/37 38/44/38 48/54/48 47/55/47
f 38/44/38 39/43/39 49/53/49 48/54/48
f 39/43/39 40/52/40 50/62/50 49/53/49
f 40/52/40 31/51/32 41/61/42 50/62/50
f 41/61/42 42/60/41 52/70/51 51/71/52
f 42/60/41 43/59/43 53/69/53 52/70/51
f 43/59/43 44/58/44 54/68/54 53/69/53
f 44/58/44 45/57/45 55/67/55 54/68/54
f 45/57/45 46/56/46 56/66/56 55/67/55
f 46/56/46 47/55/47 57/65/57 56/66/56
f 47/55/47 48/54/48 58/64/58 57/65/57
f 48/54/48 49/53/49 59/63/59 58/64/58
f 49/53/49 50/62/50 60/72/60 59/63/59
f 50/62/50 41/61/42 51/71/52 60/72/60
f 51/71/52 52/70/51 61/73/61
f 52/70/51 53/69/53 61/73/61
f 53/69/53 54/68/54 61/73/61
f 54/68/54 55/67/55 61/73/61
f 55/67/55 56/66/56 61/73/61
f 56/66/56 57/65/57 61/73/61
f 57/65/57 58/64/58 61/73/61
f 58/64/58 59/63/59 61/73/61
f 59/63/59 60/72/60 61/73/61
f 60/72/60 51/71/52 61/73/61
